<svg width="76" height="76" viewBox="0 0 76 76" fill="none" xmlns="http://www.w3.org/2000/svg">
<circle cx="37.5898" cy="38.1598" r="37.5" fill="#F3EFFF"/>
<path d="M36.3045 38.8145C36.28 33.2716 36.258 28.5286 36.258 28.5286V24.7976C34.5573 26.2827 31.4476 29.4626 30.0508 33.8203C32.4008 34.9201 34.746 36.5491 36.3045 38.8145Z" fill="#8475B3"/>
<path d="M29.7636 34.8857L29.6484 35.3173C29.5602 35.7319 29.4916 36.1538 29.4377 36.5854C28.8937 41.1041 30.5331 45.6813 34.3142 50.1902L34.3535 50.2439C34.8932 50.9453 35.5743 51.5267 36.3531 51.9509C36.3531 49.2026 36.331 45.396 36.3163 41.6528C35.2773 38.4363 32.5229 36.2879 29.7636 34.8857Z" fill="#8475B3"/>
<path d="M33.9736 54.1991C33.5129 54.1991 26.8204 54.1527 22.9461 49.0244C19.8438 44.9325 19.4835 38.836 21.8704 30.9399L22.0272 30.4181L22.5761 30.4571C24.7962 31 26.9143 31.8942 28.8495 33.1054C30.7119 27.66 35.0003 24.0119 36.2599 23.0267V20.5077C36.2599 20.5077 36.6201 16.1573 33.0889 14.3649C32.1304 13.8628 31.0474 13.6446 29.9681 13.7362C28.8888 13.8279 27.8585 14.2254 26.9993 14.8819C25.8133 15.8134 24.7938 17.4083 25.061 20.1248C25.061 20.1712 16.0307 17.6546 17.3393 27.3601C17.3393 27.3162 9.0761 30.3717 15.3078 37.785C15.3544 37.7387 8.30908 44.2545 17.4765 48.1636C17.5207 48.2099 14.0458 58.1837 24.8282 56.2523C24.8649 56.1036 24.6566 62.5585 29.7929 62.7463C31.4056 62.7935 32.9758 62.2278 34.1844 61.1643C35.3929 60.1007 36.1491 58.619 36.2991 57.0205C36.3318 56.6752 36.3465 56.3285 36.3432 55.9816C36.3432 55.9816 36.3432 55.1989 36.3432 53.8991C35.5737 54.1204 34.7743 54.2216 33.9736 54.1991V54.1991Z" fill="#8475B3"/>
<path d="M33.2501 51.0408C29.2312 46.2393 27.4913 41.3207 28.0843 36.4094C28.1618 35.7522 28.2813 35.1006 28.4421 34.4585C26.7472 33.3786 24.9097 32.5382 22.9823 31.9614C20.9337 39.1113 21.2817 44.5713 24.014 48.1926C27.4815 52.7869 33.7475 52.8259 33.9583 52.8259H33.9852C34.3564 52.8361 34.7278 52.8149 35.0953 52.7625C34.3877 52.2955 33.7639 51.7135 33.2501 51.0408Z" fill="#8475B3"/>
<path d="M37.7052 41.6792C37.6905 45.3688 37.6758 49.112 37.6709 51.8432C38.4802 51.3666 39.1999 50.7535 39.798 50.0313C43.6208 44.9591 45.1891 40.0527 44.4932 35.4413L44.3756 34.8756C41.6089 36.2802 38.7369 38.4505 37.7052 41.6792Z" fill="#8475B3"/>
<path d="M37.7197 38.8531C39.3616 36.5219 41.9395 34.8612 44.145 33.8126C42.8683 29.1793 39.5184 26.0506 37.7736 24.6777V28.5282C37.7736 28.5282 37.7442 33.2932 37.7197 38.8531Z" fill="#8475B3"/>
<path d="M58.7183 37.785C64.95 30.3717 56.6868 27.3162 56.6868 27.3601C57.9978 17.6546 48.9651 20.1712 48.9651 20.1248C49.2347 17.4083 48.2153 15.8134 47.0292 14.8819C46.1701 14.2254 45.1398 13.8279 44.0605 13.7362C42.9812 13.6446 41.8981 13.8628 40.9396 14.3649C37.4207 16.1573 37.7686 20.5077 37.7686 20.5077V22.9853C39.0895 23.9046 43.6842 27.4381 45.3849 33.1761C47.3357 31.9388 49.4749 31.0238 51.7196 30.4668L52.3028 30.3815L52.4719 30.9424C54.8587 38.8482 54.4985 44.93 51.401 49.0244C47.5389 54.1283 40.8808 54.1917 40.3736 54.199C40.2216 54.199 40.0697 54.199 39.9251 54.199C39.163 54.2003 38.4038 54.1053 37.6657 53.9162C37.6657 55.1989 37.6657 55.9719 37.6657 55.9719C37.6617 56.3187 37.6756 56.6654 37.7074 57.0107C37.8586 58.6092 38.6154 60.0906 39.8242 61.154C41.0331 62.2174 42.6032 62.7832 44.216 62.7365C49.3499 62.5487 49.1416 56.0938 49.1783 56.2426C59.9607 58.1739 56.4932 48.1953 56.53 48.1538C65.717 44.2545 58.6742 37.7387 58.7183 37.785Z" fill="#8475B3"/>
<path d="M40.3604 52.8385C40.4315 52.8385 46.8004 52.8385 50.3072 48.2052C53.042 44.584 53.3875 39.124 51.3413 31.9741C49.3511 32.566 47.4581 33.4433 45.7222 34.5785C45.7418 34.6785 45.759 34.7785 45.7786 34.8784C46.6828 39.9726 45.0434 45.3497 40.8775 50.8609C40.2804 51.6067 39.5682 52.2536 38.7676 52.7776C39.2793 52.8525 39.7973 52.877 40.3139 52.8507L40.3604 52.8385Z" fill="#8475B3"/>
</svg>
